<svg width="15" height="16" viewBox="0 0 15 16" fill="none" xmlns="http://www.w3.org/2000/svg">
<path d="M6.61364 8.29545H7.79545V12.1364M1 5.63636H14M10.4545 3.27272V0.909088M4.54545 3.27272V0.909088M2.18182 15.0909H12.8182C13.1316 15.0909 13.4322 14.9664 13.6539 14.7448C13.8755 14.5231 14 14.2225 14 13.9091V3.27272C14 2.95929 13.8755 2.65869 13.6539 2.43705C13.4322 2.21542 13.1316 2.09091 12.8182 2.09091H2.18182C1.86838 2.09091 1.56778 2.21542 1.34615 2.43705C1.12451 2.65869 1 2.95929 1 3.27272V13.9091C1 14.2225 1.12451 14.5231 1.34615 14.7448C1.56778 14.9664 1.86838 15.0909 2.18182 15.0909Z" stroke="black" stroke-width="1.5" stroke-linecap="round" stroke-linejoin="round"/>
</svg>
